<svg xmlns="http://www.w3.org/2000/svg" viewBox="0 0 1600 900" role="img" aria-labelledby="title desc">
<title id="title">Tats and Wideass Ultimate Showdown Arena website hero</title>
<desc id="desc">A vector website hero banner with a tattooed devil romper girl on the left and a devil Where's Waldo inspired boy on the right in an arena showdown.</desc>
<defs>
  <linearGradient id="bg" x1="0" x2="1" y1="0" y2="0">
    <stop offset="0" stop-color="#090606"/>
    <stop offset="0.48" stop-color="#1a0906"/>
    <stop offset="0.52" stop-color="#08080b"/>
    <stop offset="1" stop-color="#06101d"/>
  </linearGradient>
  <linearGradient id="redBurst" x1="0" x2="1"><stop offset="0" stop-color="#ff3b1f"/><stop offset="1" stop-color="#8b1008"/></linearGradient>
  <linearGradient id="blueBurst" x1="0" x2="1"><stop offset="0" stop-color="#0b2b55"/><stop offset="1" stop-color="#05070a"/></linearGradient>
  <filter id="shadow" x="-20%" y="-20%" width="140%" height="140%"><feDropShadow dx="0" dy="8" stdDeviation="7" flood-color="#000" flood-opacity=".75"/></filter>
  <filter id="glow" x="-50%" y="-50%" width="200%" height="200%"><feGaussianBlur stdDeviation="5" result="b"/><feMerge><feMergeNode in="b"/><feMergeNode in="SourceGraphic"/></feMerge></filter>
  <pattern id="halftone" width="16" height="16" patternUnits="userSpaceOnUse"><circle cx="3" cy="3" r="1.6" fill="#f5e7cf" opacity=".18"/></pattern>
  <style>
    .cream{fill:#fff1d6}.red{fill:#ef351f}.dark{fill:#050505}.ink{stroke:#050505;stroke-width:7;stroke-linecap:round;stroke-linejoin:round}.thin{stroke:#050505;stroke-width:3;stroke-linecap:round;stroke-linejoin:round}.whiteStroke{stroke:#fff1d6;stroke-width:6;stroke-linejoin:round}.nav{font:700 22px Arial, sans-serif;letter-spacing:1px}.small{font:700 18px Arial, sans-serif;letter-spacing:.7px}.body{font:800 30px Arial, sans-serif;letter-spacing:1px}.title{font:900 118px Arial Black, Impact, sans-serif;letter-spacing:-5px}.script{font:900 92px Arial Black, Impact, sans-serif;font-style:italic;letter-spacing:-4px}.tag{font:900 42px Arial Black, Impact, sans-serif}.button{font:900 20px Arial Black, sans-serif;letter-spacing:1px}.tat{fill:none;stroke:#080808;stroke-width:2.6;stroke-linecap:round;stroke-linejoin:round}.stripe{fill:#ef351f}.sock{fill:#fff7e5}.skin{fill:#f23a21}.shoe{fill:#9d5b24}.sole{fill:#3a1c09}.denim{fill:#77a6ca}.black{fill:#0b0b0c}.gold{fill:#f4b037}.spark{fill:#f8b83e}
  </style>
</defs>

<rect width="1600" height="900" fill="url(#bg)"/>
<rect y="88" width="800" height="710" fill="url(#redBurst)" opacity=".22"/>
<rect x="800" y="88" width="800" height="710" fill="url(#blueBurst)" opacity=".52"/>
<rect width="1600" height="900" fill="url(#halftone)"/>

<!-- top nav -->
<rect width="1600" height="92" fill="#030303" opacity=".96"/>
<text x="38" y="57" class="script red">Tats</text><text x="205" y="57" class="script cream" style="font-size:54px"> &amp; Wideass</text>
<text x="500" y="55" class="nav red">ARENA</text><line x1="500" y1="73" x2="575" y2="73" stroke="#ef351f" stroke-width="4"/>
<text x="645" y="55" class="nav cream">RANKINGS</text><text x="805" y="55" class="nav cream">CHALLENGES</text><text x="985" y="55" class="nav cream">ABOUT</text>
<rect x="1290" y="22" rx="26" ry="26" width="250" height="50" fill="none" stroke="#ef351f" stroke-width="3"/>
<text x="1344" y="55" class="button cream">ENTER ARENA 🔥</text>

<!-- arena floor -->
<ellipse cx="800" cy="815" rx="760" ry="120" fill="#030303" opacity=".55"/>
<path d="M35 800 C280 700 540 680 790 800 C1010 690 1320 700 1565 800 L1565 830 L35 830Z" fill="#111" opacity=".85"/>
<path d="M40 800 C280 705 535 690 790 800" fill="none" stroke="#ef351f" stroke-width="5" opacity=".65"/>
<path d="M810 800 C1030 705 1320 705 1560 800" fill="none" stroke="#4eb2ff" stroke-width="5" opacity=".55"/>

<!-- banners -->
<path d="M72 170 h95 v210 l-47-42-48 42z" fill="#ab1d14" stroke="#ef351f" stroke-width="4" opacity=".8"/>
<path d="M1428 170 h95 v210 l-47-42-48 42z" fill="#e9e1d0" stroke="#111" stroke-width="4" opacity=".85"/>
<text x="100" y="292" class="tag dark">🔥</text><text x="1458" y="292" class="tag dark">🔍</text>

<!-- explosion behind title -->
<path d="M467 270 L610 245 L540 170 L682 230 L715 115 L760 240 L885 150 L830 260 L1015 210 L875 305 L1056 345 L852 362 L930 493 L795 390 L700 515 L720 380 L535 450 L645 345 Z" fill="#fff1d6" opacity=".93" filter="url(#shadow)"/>
<path d="M515 260 L652 250 L610 170 L720 232 L765 135 L795 250 L900 190 L865 275 L1010 250 L890 318 L990 362 L855 358 L925 462 L790 385 L715 490 L720 365 L575 420 L660 335 Z" fill="#ef351f" opacity=".72"/>

<!-- center typography -->
<g filter="url(#shadow)">
<text x="505" y="295" class="title red" transform="rotate(-6 505 295)">Tats</text>
<text x="805" y="325" class="title cream" style="font-size:82px">&amp;</text>
<text x="515" y="425" class="title cream" transform="rotate(-3 515 425)">Wideass</text>
<path d="M518 470 h570 l-28 95 h-575 z" fill="#050505" stroke="#fff1d6" stroke-width="5"/>
<text x="590" y="530" class="tag red">ULTIMATE</text>
<text x="565" y="576" class="tag cream">SHOWDOWN ARENA</text>
<text x="585" y="642" class="body cream" style="font-size:26px">TWO LEGENDS. <tspan fill="#ef351f">ONE ARENA.</tspan></text>
<text x="530" y="680" class="body cream" style="font-size:25px">ONLY ONE CAN CLAIM THE CROWN.</text>
<text x="728" y="785" class="title red" style="font-size:95px">V</text><text x="805" y="785" class="title cream" style="font-size:95px">S</text>
</g>

<!-- left info card -->
<g filter="url(#shadow)">
<path d="M20 590 h210 l25 35 v165 l-25 35 h-210z" fill="#070707" stroke="#ef351f" stroke-width="3"/>
<text x="45" y="650" class="body red" style="font-size:24px">INKED.</text><text x="45" y="690" class="body red" style="font-size:24px">ICONIC.</text><text x="45" y="730" class="body red" style="font-size:24px">UNAPOLOGETIC.</text>
<rect x="44" y="765" width="150" height="48" rx="8" fill="none" stroke="#ef351f" stroke-width="3"/><text x="62" y="797" class="button red">VIEW STATS →</text>
</g>
<g filter="url(#shadow)">
<path d="M1335 595 h230 v190 h-230 l-25-35 v-120z" fill="#050505" stroke="#4eb2ff" stroke-width="3"/>
<text x="1390" y="650" class="body cream" style="font-size:24px">HARD TO FIND.</text><text x="1370" y="690" class="body cream" style="font-size:24px">IMPOSSIBLE TO</text><text x="1424" y="730" class="body cream" style="font-size:24px">IGNORE.</text>
<rect x="1360" y="755" width="165" height="48" rx="8" fill="none" stroke="#4eb2ff" stroke-width="3"/><text x="1380" y="787" class="button" fill="#4eb2ff">VIEW STATS →</text>
</g>

<!-- character: Tats, romper devil girl -->
<g transform="translate(135,118)" filter="url(#shadow)">
  <!-- tail -->
  <path d="M120 460 C20 500 80 600 180 565" fill="none" stroke="#e8321f" stroke-width="20" stroke-linecap="round"/>
  <path d="M78 444 l-58 24 26-58z" fill="#e8321f" class="thin"/>
  <!-- legs -->
  <path class="skin ink" d="M205 515 C185 610 182 682 178 760 h70 C250 675 260 590 290 520z"/>
  <path class="skin ink" d="M330 510 C355 605 376 680 410 760 h72 C445 662 420 590 385 510z"/>
  <!-- bare lower feet, no socks -->
  <path class="skin ink" d="M176 756 c25 12 60 12 78 0 l10 28 c-38 16-72 14-102-2z"/>
  <path class="skin ink" d="M411 754 c22 15 48 15 72 1 l14 25 c-32 20-65 20-99 3z"/>
  <!-- one birk on left foot -->
  <g transform="translate(145,748)">
    <path class="shoe ink" d="M0 25 C34 8 87 15 110 42 C90 70 32 70 4 48z"/>
    <path class="sole" d="M5 48 C35 62 88 60 108 42 L112 56 C82 82 24 77 0 55z"/>
    <rect x="15" y="24" width="38" height="22" rx="4" fill="#b77736" stroke="#3a1c09" stroke-width="3"/>
    <rect x="58" y="25" width="38" height="20" rx="4" fill="#b77736" stroke="#3a1c09" stroke-width="3"/>
  </g>
  <!-- other birk off on floor next to her -->
  <g transform="translate(380,725) rotate(-5)">
    <path class="shoe ink" d="M0 25 C36 5 98 12 125 42 C104 72 38 72 5 50z"/>
    <path class="sole" d="M4 50 C38 68 101 64 124 42 L128 58 C92 82 31 80 0 58z"/>
    <rect x="24" y="22" width="39" height="22" rx="4" fill="#b77736" stroke="#3a1c09" stroke-width="3"/>
    <rect x="70" y="23" width="39" height="21" rx="4" fill="#b77736" stroke="#3a1c09" stroke-width="3"/>
  </g>
  <!-- romper -->
  <path class="black ink" d="M205 260 h190 c30 82 25 160 10 255 H180 c-18-94-8-178 25-255z"/>
  <path class="black ink" d="M225 210 h145 c28 35 40 70 43 112 H188 c4-45 14-78 37-112z"/>
  <path d="M225 210 l-45-92" stroke="#0b0b0c" stroke-width="22" stroke-linecap="round"/><path d="M370 210 l35-92" stroke="#0b0b0c" stroke-width="22" stroke-linecap="round"/>
  <line x1="206" y1="350" x2="405" y2="350" stroke="#252525" stroke-width="8"/>
  <!-- arms -->
  <path class="skin ink" d="M190 235 C125 275 105 360 94 440 C126 450 154 440 164 410 C172 355 194 320 226 292z"/>
  <path class="skin ink" d="M395 232 C458 250 505 310 528 365 C506 382 482 380 466 356 C450 325 420 300 385 285z"/>
  <path class="skin ink" d="M485 355 c22-10 50 8 43 35 c-12 22-44 24-58 5z"/>
  <!-- hand hip -->
  <path class="skin thin" d="M122 440 c36-18 68-31 100-42"/>
  <!-- head -->
  <circle class="skin ink" cx="300" cy="110" r="96"/>
  <path class="skin ink" d="M223 92 L165 112 L220 135"/>
  <path class="skin ink" d="M377 92 L435 112 L380 136"/>
  <path class="skin ink" d="M242 28 C222-32 202-15 198 42"/>
  <path class="skin ink" d="M355 28 C378-32 398-15 398 42"/>
  <path d="M258 112 q25-25 55 0" fill="none" stroke="#050505" stroke-width="7"/>
  <path d="M325 114 q22-21 48 0" fill="none" stroke="#050505" stroke-width="7"/>
  <path d="M292 148 q25 20 52 0" fill="none" stroke="#050505" stroke-width="5"/>
  <!-- sunglasses -->
  <ellipse cx="258" cy="111" rx="43" ry="24" fill="#050505" stroke="#6b441b" stroke-width="5"/>
  <ellipse cx="350" cy="111" rx="43" ry="24" fill="#050505" stroke="#6b441b" stroke-width="5"/>
  <line x1="300" y1="110" x2="308" y2="110" stroke="#6b441b" stroke-width="5"/>
  <!-- tattoos on arms/legs -->
  <g>
    <circle class="tat" cx="140" cy="315" r="16"/><path class="tat" d="M130 315 h20 M140 305 v20"/>
    <path class="tat" d="M118 370 q22-30 45 0 q-18 20-45 0z"/><path class="tat" d="M148 250 l15 18 l-20 0z"/>
    <path class="tat" d="M440 270 c20 20 12 55-20 60 c24-22 25-40 0-58"/><circle class="tat" cx="466" cy="335" r="14"/>
    <circle class="tat" cx="225" cy="610" r="25"/><path class="tat" d="M202 610 h46 M225 587 v46"/>
    <path class="tat" d="M217 690 q28-34 60 0 q-28 28-60 0z"/><text x="228" y="695" font-size="13" font-weight="900" fill="#050505">NO</text>
    <path class="tat" d="M372 590 c44 26 2 70 35 98 c-52-22-10-65-35-98z"/><circle class="tat" cx="410" cy="548" r="22"/>
    <path class="tat" d="M430 675 q-22 18-43 0 q20-20 43 0z"/>
    <path class="tat" d="M330 183 q15-22 31 0 q-15 18-31 0z"/>
  </g>
</g>

<!-- character: Wideass, devil Waldo boy -->
<g transform="translate(1125,126)" filter="url(#shadow)">
  <!-- tail -->
  <path d="M250 425 C370 460 330 560 230 535" fill="none" stroke="#e8321f" stroke-width="18" stroke-linecap="round"/>
  <path d="M345 420 l55 20-45 38z" fill="#e8321f" class="thin"/>
  <!-- legs straight -->
  <path class="skin ink" d="M95 430 h62 l-8 250 h-58z"/>
  <path class="skin ink" d="M205 430 h62 l20 250 h-58z"/>
  <!-- socks -->
  <path class="sock ink" d="M91 642 h58 v68 h-58z"/><rect x="92" y="654" width="56" height="8" class="stripe"/><rect x="92" y="671" width="56" height="8" class="stripe"/>
  <path class="sock ink" d="M227 642 h60 v68 h-60z"/><rect x="228" y="654" width="58" height="8" class="stripe"/><rect x="228" y="671" width="58" height="8" class="stripe"/>
  <!-- birks -->
  <g transform="translate(65,690)"><path class="shoe ink" d="M0 25 C34 8 88 14 112 42 C92 70 30 72 4 50z"/><path class="sole" d="M4 50 C32 64 90 62 112 42 L116 58 C84 82 24 80 0 57z"/><rect x="16" y="24" width="38" height="22" rx="4" fill="#b77736" stroke="#3a1c09" stroke-width="3"/><rect x="60" y="25" width="38" height="20" rx="4" fill="#b77736" stroke="#3a1c09" stroke-width="3"/></g>
  <g transform="translate(203,690)"><path class="shoe ink" d="M0 25 C34 8 88 14 112 42 C92 70 30 72 4 50z"/><path class="sole" d="M4 50 C32 64 90 62 112 42 L116 58 C84 82 24 80 0 57z"/><rect x="16" y="24" width="38" height="22" rx="4" fill="#b77736" stroke="#3a1c09" stroke-width="3"/><rect x="60" y="25" width="38" height="20" rx="4" fill="#b77736" stroke="#3a1c09" stroke-width="3"/></g>
  <!-- shorts -->
  <path class="denim ink" d="M58 315 h235 c20 45 12 85-8 135 h-84 l-18-65 l-18 65 h-96 c-18-58-20-100-11-135z"/>
  <line x1="174" y1="320" x2="174" y2="436" stroke="#305d7b" stroke-width="5"/><circle cx="174" cy="330" r="7" fill="#c49a42" stroke="#050505" stroke-width="3"/>
  <!-- shirt red and white stripes -->
  <path class="cream ink" d="M62 120 h226 c32 62 38 128 22 205 H42 c-14-76-8-142 20-205z"/>
  <rect x="50" y="142" width="254" height="24" class="stripe"/><rect x="43" y="197" width="275" height="28" class="stripe"/><rect x="43" y="258" width="272" height="30" class="stripe"/>
  <path class="cream ink" d="M42 127 C-10 165-8 235 28 280 C52 262 65 238 78 200z"/><path class="cream ink" d="M288 130 C375 160 392 220 360 285 C330 280 312 260 300 228z"/>
  <rect x="18" y="158" width="54" height="23" class="stripe" transform="rotate(-25 18 158)"/><rect x="7" y="210" width="61" height="22" class="stripe" transform="rotate(-13 7 210)"/>
  <rect x="304" y="162" width="62" height="23" class="stripe" transform="rotate(25 304 162)"/><rect x="324" y="214" width="55" height="22" class="stripe" transform="rotate(16 324 214)"/>
  <!-- left hand pocket and thumbs up -->
  <path class="skin ink" d="M280 227 C315 236 342 248 365 280 C357 298 337 307 322 292 C300 270 282 258 262 252z"/>
  <path class="skin ink" d="M320 292 c18 18 45 12 51-12"/>
  <path class="skin ink" d="M20 270 C-18 238-22 185 14 142 C34 165 44 198 50 235z"/>
  <path class="skin ink" d="M-1 142 c-10-30 12-62 40-50 c12 9 9 33-11 46z"/>
  <path class="skin ink" d="M23 88 c25 8 30 40 13 60"/>
  <!-- head -->
  <circle class="skin ink" cx="175" cy="78" r="78"/>
  <path class="skin ink" d="M115 70 L65 88 L112 112"/>
  <path class="skin ink" d="M235 70 L285 88 L238 112"/>
  <path class="skin ink" d="M124 18 C110-36 93-14 91 35"/>
  <path class="skin ink" d="M226 18 C244-36 262-14 258 35"/>
  <!-- waldo hat -->
  <path d="M95 38 C120-42 230-42 255 38 C205 20 145 20 95 38z" fill="#fff7e5" stroke="#050505" stroke-width="7"/>
  <path d="M115 26 C150 8 200 8 235 26" fill="none" stroke="#ef351f" stroke-width="22"/>
  <circle cx="257" cy="0" r="23" fill="#ef351f" stroke="#050505" stroke-width="5"/>
  <!-- face -->
  <circle cx="145" cy="78" r="18" fill="#fff" stroke="#050505" stroke-width="5"/><circle cx="205" cy="78" r="18" fill="#fff" stroke="#050505" stroke-width="5"/><circle cx="148" cy="80" r="8" fill="#050505"/><circle cx="208" cy="80" r="8" fill="#050505"/>
  <circle cx="145" cy="78" r="30" fill="none" stroke="#d7aa4a" stroke-width="6"/><circle cx="205" cy="78" r="30" fill="none" stroke="#d7aa4a" stroke-width="6"/><line x1="175" y1="78" x2="176" y2="78" stroke="#d7aa4a" stroke-width="6"/>
  <path d="M145 117 q30 30 62 0" fill="none" stroke="#050505" stroke-width="7"/>
</g>

<!-- bottom feature bar -->
<rect y="815" width="1600" height="85" fill="#050505" opacity=".96"/>
<g class="cream small">
  <text x="170" y="850" class="body cream" style="font-size:20px">🏆 EPIC BATTLES</text><text x="170" y="878" font-size="16">Face off in wild challenges.</text>
  <line x1="405" y1="830" x2="405" y2="885" stroke="#fff1d6" opacity=".35"/>
  <text x="525" y="850" class="body cream" style="font-size:20px">👑 CLIMB THE RANKS</text><text x="525" y="878" font-size="16">Prove you're the ultimate legend.</text>
  <line x1="790" y1="830" x2="790" y2="885" stroke="#fff1d6" opacity=".35"/>
  <text x="910" y="850" class="body cream" style="font-size:20px">🔥 EARN GLORY</text><text x="910" y="878" font-size="16">Unlock rewards and bragging rights.</text>
  <line x1="1190" y1="830" x2="1190" y2="885" stroke="#fff1d6" opacity=".35"/>
  <text x="1280" y="850" class="body cream" style="font-size:20px">⚡ JOIN THE ARENA</text><text x="1280" y="878" font-size="16">Step in. Stand out. Be remembered.</text>
</g>

<!-- decorative sparks -->
<g filter="url(#glow)">
  <path class="spark" d="M320 145 l12 28 28 12-28 12-12 28-12-28-28-12 28-12z"/>
  <path class="spark" d="M1160 185 l10 24 24 10-24 10-10 24-10-24-24-10 24-10z"/>
  <path class="spark" d="M420 535 l8 18 18 8-18 8-8 18-8-18-18-8 18-8z"/>
  <path class="spark" d="M1280 490 l8 18 18 8-18 8-8 18-8-18-18-8 18-8z"/>
</g>
</svg>
